<mxfile host="Electron" agent="Mozilla/5.0 (Windows NT 10.0; Win64; x64) AppleWebKit/537.36 (KHTML, like Gecko) draw.io/28.1.2 Chrome/138.0.7204.243 Electron/37.4.0 Safari/537.36" version="28.1.2">
  <diagram name="Page-1" id="v5RAu5klR39Lm09rsD4q">
    <mxGraphModel dx="1209" dy="868" grid="1" gridSize="10" guides="1" tooltips="1" connect="1" arrows="1" fold="1" page="1" pageScale="1" pageWidth="850" pageHeight="1100" math="0" shadow="0">
      <root>
        <mxCell id="0" />
        <mxCell id="1" parent="0" />
        <mxCell id="zuhUX873_J-z1-R4XkIV-8" style="edgeStyle=orthogonalEdgeStyle;rounded=0;orthogonalLoop=1;jettySize=auto;html=1;" edge="1" parent="1" source="zuhUX873_J-z1-R4XkIV-1" target="zuhUX873_J-z1-R4XkIV-3">
          <mxGeometry relative="1" as="geometry" />
        </mxCell>
        <mxCell id="zuhUX873_J-z1-R4XkIV-1" value="Studi Literatur" style="rounded=0;whiteSpace=wrap;html=1;" vertex="1" parent="1">
          <mxGeometry x="360" y="120" width="170" height="40" as="geometry" />
        </mxCell>
        <mxCell id="zuhUX873_J-z1-R4XkIV-9" style="edgeStyle=orthogonalEdgeStyle;rounded=0;orthogonalLoop=1;jettySize=auto;html=1;" edge="1" parent="1" source="zuhUX873_J-z1-R4XkIV-3" target="zuhUX873_J-z1-R4XkIV-4">
          <mxGeometry relative="1" as="geometry" />
        </mxCell>
        <mxCell id="zuhUX873_J-z1-R4XkIV-3" value="Rekayasa Kebutuhan" style="rounded=0;whiteSpace=wrap;html=1;" vertex="1" parent="1">
          <mxGeometry x="360" y="200" width="170" height="40" as="geometry" />
        </mxCell>
        <mxCell id="zuhUX873_J-z1-R4XkIV-10" style="edgeStyle=orthogonalEdgeStyle;rounded=0;orthogonalLoop=1;jettySize=auto;html=1;" edge="1" parent="1" source="zuhUX873_J-z1-R4XkIV-4" target="zuhUX873_J-z1-R4XkIV-5">
          <mxGeometry relative="1" as="geometry" />
        </mxCell>
        <mxCell id="zuhUX873_J-z1-R4XkIV-4" value="Perancangan Sistem" style="rounded=0;whiteSpace=wrap;html=1;" vertex="1" parent="1">
          <mxGeometry x="360" y="280" width="170" height="40" as="geometry" />
        </mxCell>
        <mxCell id="zuhUX873_J-z1-R4XkIV-11" style="edgeStyle=orthogonalEdgeStyle;rounded=0;orthogonalLoop=1;jettySize=auto;html=1;" edge="1" parent="1" source="zuhUX873_J-z1-R4XkIV-5" target="zuhUX873_J-z1-R4XkIV-6">
          <mxGeometry relative="1" as="geometry" />
        </mxCell>
        <mxCell id="zuhUX873_J-z1-R4XkIV-5" value="Implementasi" style="rounded=0;whiteSpace=wrap;html=1;" vertex="1" parent="1">
          <mxGeometry x="360" y="360" width="170" height="40" as="geometry" />
        </mxCell>
        <mxCell id="zuhUX873_J-z1-R4XkIV-12" style="edgeStyle=orthogonalEdgeStyle;rounded=0;orthogonalLoop=1;jettySize=auto;html=1;" edge="1" parent="1" source="zuhUX873_J-z1-R4XkIV-6" target="zuhUX873_J-z1-R4XkIV-7">
          <mxGeometry relative="1" as="geometry" />
        </mxCell>
        <mxCell id="zuhUX873_J-z1-R4XkIV-6" value="Pengujian dan Analisis Hasil" style="rounded=0;whiteSpace=wrap;html=1;" vertex="1" parent="1">
          <mxGeometry x="360" y="440" width="170" height="40" as="geometry" />
        </mxCell>
        <mxCell id="zuhUX873_J-z1-R4XkIV-7" value="Kesimpulan dan Saran" style="rounded=0;whiteSpace=wrap;html=1;" vertex="1" parent="1">
          <mxGeometry x="360" y="520" width="170" height="40" as="geometry" />
        </mxCell>
      </root>
    </mxGraphModel>
  </diagram>
</mxfile>
